<svg width="200" height="200" viewBox="0 0 200 200" fill="none" xmlns="http://www.w3.org/2000/svg">
<path fill-rule="evenodd" clip-rule="evenodd" d="M133.3 25.265C117.184 18.0841 99.1785 16.3052 81.9688 20.1935C64.7592 24.0818 49.2674 33.429 37.8041 46.8411C26.3408 60.2531 19.5201 77.0114 18.3592 94.6167C17.1983 112.222 21.7595 129.731 31.3624 144.532C40.9654 159.333 55.0956 170.634 71.6457 176.748C88.1957 182.862 106.279 183.463 123.198 178.461C140.118 173.458 154.967 163.12 165.531 148.989C176.095 134.858 181.808 117.69 181.818 100.047V91.6884C181.818 86.6676 185.888 82.5975 190.909 82.5975C195.93 82.5975 200 86.6676 200 91.6884V100.052C199.988 121.616 193.005 142.604 180.093 159.875C167.182 177.147 149.033 189.782 128.354 195.896C107.674 202.01 85.5726 201.276 65.3447 193.803C45.1168 186.33 27.8465 172.518 16.1096 154.428C4.37266 136.338 -1.20209 114.938 0.216768 93.4204C1.63562 71.9029 9.97207 51.4205 23.9828 35.028C37.9935 18.6354 56.9278 7.21106 77.9619 2.4587C98.9959 -2.29366 121.003 -0.119393 140.7 8.65724C145.286 10.7007 147.347 16.075 145.304 20.6611C143.26 25.2472 137.886 27.3085 133.3 25.265Z" fill="#AC6A4D"/>
<path fill-rule="evenodd" clip-rule="evenodd" d="M197.32 20.4137C200.891 23.9783 200.894 29.7604 197.326 33.3286L105.928 124.742C104.215 126.456 101.89 127.419 99.4647 127.42C97.0399 127.42 94.7143 126.458 92.9997 124.745L65.5803 97.3483C62.011 93.782 62.011 87.9998 65.5803 84.4335C69.1496 80.8671 74.9366 80.8671 78.5059 84.4335L99.4592 105.369L184.394 20.4202C187.962 16.8521 193.749 16.8492 197.32 20.4137Z" fill="#AC6A4D"/>
</svg>
